<?xml version="1.0" encoding="UTF-8" standalone="no"?>
<svg
   xmlns:dc="http://purl.org/dc/elements/1.1/"
   xmlns:cc="http://creativecommons.org/ns#"
   xmlns:rdf="http://www.w3.org/1999/02/22-rdf-syntax-ns#"
   xmlns:svg="http://www.w3.org/2000/svg"
   xmlns="http://www.w3.org/2000/svg"
   viewBox="0 0 548 548"
   height="548"
   width="548"
   xml:space="preserve"
   id="svg2"
   version="1.1"><metadata
     id="metadata8"><rdf:RDF><cc:Work
         rdf:about=""><dc:format>image/svg+xml</dc:format><dc:type
           rdf:resource="http://purl.org/dc/dcmitype/StillImage" /><dc:title></dc:title></cc:Work></rdf:RDF></metadata><defs
     id="defs6"><clipPath
       id="clipPath20"
       clipPathUnits="userSpaceOnUse"><path
         id="path18"
         d="M 0,0 H 4110 V 4110 H 0 Z" /></clipPath><clipPath
       id="clipPath26"
       clipPathUnits="userSpaceOnUse"><path
         style="clip-rule:evenodd"
         id="path24"
         d="M 0,4285 H 4275 V -175 H 0 Z m 25,-855 c 0,356.21 288.809,645 645,645 h 2750 c 356.21,0 645,-288.81 645,-645 V 680 C 4065,323.793 3776.19,35 3420,35 H 670 C 313.793,35 25,323.809 25,680 Z m -10,0 V 680 C 15,318.285 308.27,25 670,25 h 2750 c 361.71,0 655,293.27 655,655 v 2750 c 0,361.71 -293.27,655 -655,655 H 670 C 308.285,4085 15,3791.73 15,3430 Z" /></clipPath><clipPath
       id="clipPath32"
       clipPathUnits="userSpaceOnUse"><path
         style="clip-rule:evenodd"
         id="path30"
         d="m 20,3430 c 0,358.98 291.063,650 650,650 h 2750 c 358.98,0 650,-291.06 650,-650 V 680 C 4070,321.016 3778.94,30 3420,30 H 670 C 311.016,30 20,321.063 20,680 Z" /></clipPath><clipPath
       id="clipPath38"
       clipPathUnits="userSpaceOnUse"><path
         id="path36"
         d="M 0,0 H 4110 V 4110 H 0 Z" /></clipPath><clipPath
       id="clipPath48"
       clipPathUnits="userSpaceOnUse"><path
         style="clip-rule:evenodd"
         id="path46"
         d="m 20,3430 c 0,358.98 291.063,650 650,650 h 2750 c 358.98,0 650,-291.06 650,-650 V 680 C 4070,321.016 3778.94,30 3420,30 H 670 C 311.016,30 20,321.063 20,680 Z" /></clipPath><clipPath
       id="clipPath54"
       clipPathUnits="userSpaceOnUse"><path
         id="path52"
         d="M 0,0 H 4110 V 4110 H 0 Z" /></clipPath><clipPath
       id="clipPath64"
       clipPathUnits="userSpaceOnUse"><path
         style="clip-rule:evenodd"
         id="path62"
         d="M 2845.06,1373 C 2299.22,863.992 1706.95,311.688 1267.47,534.137 1184.93,457.168 1082,484.398 970.824,471.324 859.645,458.25 725.117,384.191 669.844,420.301 c -22.27,14.547 -16.172,27.383 -42.606,54.121 -24.054,24.328 -86.925,56.488 -106.465,77.445 -22.66,24.301 54.743,73.133 67.442,136.129 6.484,32.16 269.578,157.289 292.39,199.418 48.704,89.941 128.195,183.526 217.335,140.466 88.55,362.26 528.61,434.78 912.14,836.83 117.38,123.06 140.1,173.62 379.37,474.24 392.09,492.66 240.18,490.53 566.9,795.2 113.07,105.44 203.29,113.97 308.15,121.29 95.09,6.63 236.57,-11.53 292.47,-48.99 440.98,-295.5 337.14,-855.2 -711.91,-1833.45 z" /></clipPath><clipPath
       id="clipPath70"
       clipPathUnits="userSpaceOnUse"><path
         id="path68"
         d="M 0,0 H 4110 V 4110 H 0 Z" /></clipPath><clipPath
       id="clipPath80"
       clipPathUnits="userSpaceOnUse"><path
         style="clip-rule:evenodd"
         id="path78"
         d="m 1772.73,1946.36 c -190.91,-85.25 -412.42,-140.45 -556.11,15.37 0.42,-20.85 16.83,-47.06 -0.72,-46.42 -18.68,9.93 -9.97,63.76 -60.07,31.94 1.8,45.85 -11.38,30.36 -46.74,24.85 -7.15,28.11 -24.57,28.36 -54.45,28.95 -29.88,0.59 31.02,19.15 42.95,23.97 -611.285,215.71 -528.496,924.49 -333.633,1228.78 142.609,222.68 491.683,405.13 851.523,77.49 -18.66,188.76 -122.57,269.92 -125.09,304.07 20.36,-10.83 66.6,-21.8 95.32,-3.76 8.32,-40.13 73.38,-85.94 95.99,-335.52 298.46,-20.58 970.18,-331.03 449.89,-1043.75 -63.36,-86.79 -167.94,-220.72 -358.86,-305.97 z" /></clipPath><clipPath
       id="clipPath86"
       clipPathUnits="userSpaceOnUse"><path
         id="path84"
         d="M 0,0 H 4110 V 4110 H 0 Z" /></clipPath><clipPath
       id="clipPath96"
       clipPathUnits="userSpaceOnUse"><path
         style="clip-rule:evenodd"
         id="path94"
         d="m 3722.34,461.992 c -29.62,-29.617 -59.23,-59.234 -88.85,-88.847 -10.12,-10.122 -47.43,-13.29 -55.97,-4.754 L 3277.21,668.703 C 3129.84,554.68 2955.87,449.035 2874.53,530.371 c -81.33,81.336 10.02,206.781 17.72,261.902 26.35,188.961 -237.71,456.677 -370.46,614.027 -132.74,157.35 -453.19,471.01 -592.23,610.06 -1435.072,1435.07 379.05,-379.06 -1056.021,1056.01 -43.207,43.21 -121.625,119.8 -129.621,129.62 -619.254,760.53 -149.68,403.97 141.27,141.27 17.113,-15.45 86.414,-86.41 129.622,-129.62 1431.32,-1431.32 -386.564,386.57 1044.75,-1044.75 l 612.46,-612.46 c 154.27,-154.27 451.77,-390.88 608.91,-368.78 72.24,10.16 206.38,91.37 274.32,23.44 67.93,-67.94 0.26,-241.336 -134.41,-403.473 206.19,-206.191 87.46,-87.465 293.65,-293.656 9.97,-9.969 15.2,-44.613 7.85,-51.969 z" /></clipPath><clipPath
       id="clipPath102"
       clipPathUnits="userSpaceOnUse"><path
         id="path100"
         d="M 0,0 H 4110 V 4110 H 0 Z" /></clipPath></defs><g
     transform="matrix(1.3333333,0,0,-1.3333333,0,548)"
     id="g10"><g
       transform="scale(0.1)"
       id="g12"><g
         id="g14"><g
           clip-path="url(#clipPath20)"
           id="g16"><g
             clip-path="url(#clipPath26)"
             id="g22"><g
               clip-path="url(#clipPath32)"
               id="g28"><g
                 clip-path="url(#clipPath38)"
                 id="g34"><path
                   id="path40"
                   style="fill:#ffdb4d;fill-opacity:1;fill-rule:evenodd;stroke:none"
                   d="m 20,3430 c 0,358.98 291.063,650 650,650 h 2750 c 358.98,0 650,-291.06 650,-650 V 680 C 4070,321.016 3778.94,30 3420,30 H 670 C 311.016,30 20,321.063 20,680 Z" /></g></g></g></g></g><g
         id="g42"><g
           clip-path="url(#clipPath48)"
           id="g44"><g
             clip-path="url(#clipPath54)"
             id="g50"><path
               id="path56"
               style="fill:none;stroke:#979797;stroke-width:20;stroke-linecap:butt;stroke-linejoin:miter;stroke-miterlimit:10;stroke-dasharray:none;stroke-opacity:1"
               d="m 20,3430 c 0,358.98 291.063,650 650,650 h 2750 c 358.98,0 650,-291.06 650,-650 V 680 C 4070,321.016 3778.94,30 3420,30 H 670 C 311.016,30 20,321.063 20,680 Z" /></g></g></g><g
         id="g58"><g
           clip-path="url(#clipPath64)"
           id="g60"><g
             clip-path="url(#clipPath70)"
             id="g66"><path
               id="path72"
               style="fill:#494949;fill-opacity:1;fill-rule:nonzero;stroke:none"
               d="M 3329.7,3550.67 294.949,720.719 1189.82,-238.906 4224.56,2591.04 Z" /></g></g></g><g
         id="g74"><g
           clip-path="url(#clipPath80)"
           id="g76"><g
             clip-path="url(#clipPath86)"
             id="g82"><path
               id="path88"
               style="fill:#494949;fill-opacity:1;fill-rule:nonzero;stroke:none"
               d="m 2663.06,3115.4 -1584,842.22 L 237.996,2375.8 1821.99,1533.58 Z" /></g></g></g><g
         id="g90"><g
           clip-path="url(#clipPath96)"
           id="g92"><g
             clip-path="url(#clipPath102)"
             id="g98"><path
               id="path104"
               style="fill:#494949;fill-opacity:1;fill-rule:nonzero;stroke:none"
               d="M 3332.63,1.56641 24.9063,3309.29 776.332,4060.71 4084.05,752.992 Z" /></g></g></g></g></g></svg>